<svg xmlns="http://www.w3.org/2000/svg" viewBox="0 0 237.07 233.76">
  <circle cx="118.5" cy="116.9" r="116" fill="#6d929f"/>
  <g fill="#fff">
    <path d="M92.38,2.51c.54-2-2.52-3.34-4.43-1.92-14.16,10.52-41.1,39.2.76,85.46,48.75,53.88,27.15,106.6-19.71,144.27-2.21,1.77.75,4.43,3.42,3.06,22.95-11.74,62.22-35.67,70.97-76.99C158.75,83.82,74.93,67.62,92.38,2.51"/>
    <path d="M19.85,114.36c-.46-.97-.1-2.14.85-2.65,6.98-3.8,34.31-17.07,51.29-2.35,23.22,20.14,16.74,85.77-28.62,122.94-1.85,1.52-4.34-.91-2.89-2.81,8.98-11.8,20.93-30.88,22.85-50.86,3.1-32.2-.34-54.78-34.74-49.39-.89.14-1.78-.31-2.17-1.12l-6.57-13.75Z"/>
    <path d="M1.1,123.74l8.99-4.54c.91-.46,2.01-.19,2.58.65,5.45,7.92,30.76,47.79,26.99,99.56-.18,2.49-3.78,2.59-4.05.11-2.38-22.15-10.21-58.55-35.22-92.76-.74-1.01-.41-2.45.7-3.01"/>
    <path d="M158.75,83.82l25.26-12.76c1.42-.72,3.08.39,2.94,1.97-1.28,14.92-16.11,86,26.83,102.47,1.82.7,1.64,3.34-.25,3.85-18.07,4.82-57.37-3.73-55.91-93.71.01-.76.45-1.47,1.12-1.81"/>
    <path d="M218.9,108.62l12.61-6.29c1.22-.61,2.68.13,2.91,1.47,2.47,14.59,11.85,85.21-30.06,125.19-1.77,1.69-4.47-.61-3.09-2.62,13.05-18.88,29.98-56.65,16.56-115.47-.21-.91.22-1.86,1.06-2.28"/>
  </g>
</svg>
